<?xml version="1.0" standalone="no"?>
<!DOCTYPE svg PUBLIC "-//W3C//DTD SVG 20010904//EN"
 "http://www.w3.org/TR/2001/REC-SVG-20010904/DTD/svg10.dtd">
<svg version="1.0" xmlns="http://www.w3.org/2000/svg"
 width="255.000000pt" height="255.000000pt" viewBox="0 0 255.000000 255.000000"
 preserveAspectRatio="xMidYMid meet">

<g transform="translate(0.000000,255.000000) scale(0.100000,-0.100000)"
fill="#000000" stroke="none">
<path d="M1360 2363 c-8 -2 -37 -58 -64 -123 -28 -71 -54 -120 -62 -120 -7 0
-57 -22 -109 -49 l-96 -49 -117 33 c-90 26 -120 31 -128 22 -37 -41 -128 -153
-149 -186 l-26 -39 57 -108 c46 -87 56 -114 51 -136 l-7 -28 -180 0 -179 0 -3
-65 -3 -64 -67 42 c-65 40 -68 44 -68 80 0 102 -141 121 -166 23 -8 -32 14
-77 47 -95 23 -13 33 -13 66 -2 38 13 41 12 116 -34 l77 -46 0 -265 0 -265
-21 12 c-39 21 -109 91 -109 110 0 24 30 39 79 39 23 0 41 5 41 10 0 6 -20 10
-44 10 -58 0 -102 -34 -91 -69 9 -31 69 -95 111 -122 l34 -21 0 -112 c0 -71
-4 -116 -11 -123 -9 -9 63 -10 290 -6 l303 6 -4 -88 -3 -89 60 -34 c73 -42
196 -92 224 -92 12 0 58 33 105 75 l84 75 116 0 117 0 90 -75 c63 -53 98 -75
117 -75 33 0 46 9 50 35 2 14 0 16 -6 7 -6 -9 -21 -3 -60 29 -46 36 -52 45
-52 78 0 30 8 48 41 85 l41 46 78 -72 c42 -40 73 -76 68 -79 -6 -4 3 -9 18
-12 23 -4 12 10 -65 80 l-92 86 42 43 c57 58 99 72 141 47 l32 -19 51 56 c27
30 65 78 82 106 32 49 35 51 100 63 167 31 160 27 176 79 21 66 34 128 42 194
l7 56 -91 68 c-78 59 -92 73 -96 104 -8 46 -24 113 -42 175 l-15 51 56 101
c31 56 56 107 56 115 0 23 -71 121 -135 185 l-62 62 -113 -34 -112 -34 -42 26
c-22 15 -72 41 -111 58 l-70 32 -38 92 c-62 147 -54 141 -210 140 -73 -1 -139
-3 -147 -6z m180 -298 c6 -8 9 -18 6 -23 -3 -5 -1 -23 4 -41 7 -26 6 -31 -9
-31 -12 0 -17 7 -17 22 1 14 -6 24 -18 26 -15 3 -18 -1 -14 -22 4 -19 1 -26
-11 -26 -13 0 -16 8 -13 43 2 23 9 48 14 55 14 16 43 15 58 -3z m-118 -12 c35
-31 13 -93 -33 -93 -49 0 -77 36 -57 73 21 41 58 49 90 20z m218 -29 l5 -39
23 38 c12 21 26 35 32 32 15 -9 8 -115 -9 -115 -10 0 -12 10 -8 40 3 22 4 40
2 40 -2 0 -12 -16 -24 -36 -25 -42 -41 -37 -41 14 l-1 37 -13 -30 c-7 -16 -11
-33 -9 -37 2 -5 -3 -8 -12 -8 -12 0 -15 6 -9 22 30 94 55 111 64 42z m-345 17
c3 -5 -5 -11 -17 -13 -13 -2 -21 -7 -18 -13 3 -5 13 -9 23 -8 24 4 21 -14 -4
-20 -17 -5 -19 -9 -10 -26 14 -26 14 -31 -2 -31 -19 0 -41 88 -26 106 13 16
45 19 54 5z m545 -14 c-8 -7 -14 -22 -12 -34 2 -12 -4 -35 -12 -51 -8 -16 -12
-33 -8 -37 4 -4 0 -5 -8 -3 -15 6 -16 11 -5 39 4 11 0 18 -14 22 -24 6 -31 0
-31 -24 0 -12 -5 -16 -15 -13 -26 10 22 84 65 99 46 17 58 17 40 2z m-642 -14
c-1 -5 6 -22 15 -40 18 -34 22 -63 9 -63 -4 0 -25 15 -47 33 l-40 32 23 -39
c18 -31 20 -41 10 -47 -9 -6 -15 -1 -19 15 -4 12 -14 35 -24 49 -15 24 -15 27
-2 33 9 3 31 -6 52 -22 l36 -27 -18 31 c-10 18 -22 32 -28 32 -5 0 -3 5 5 10
18 12 31 13 28 3z m770 -86 c9 -11 6 -19 -14 -38 -15 -13 -29 -32 -33 -41 -4
-11 -11 -14 -19 -9 -10 6 -6 16 17 42 37 40 38 46 9 55 -21 6 -24 4 -63 -50
-7 -10 -18 -15 -24 -12 -7 5 -3 15 10 29 34 36 42 56 24 63 -8 3 -15 10 -15
15 0 12 92 -34 108 -54z m-882 35 c-3 -5 9 -25 25 -45 17 -20 27 -41 24 -47
-9 -15 -25 -12 -25 4 0 8 -12 28 -26 45 -24 29 -25 51 -3 51 6 0 8 -4 5 -8z
m954 -97 c7 -9 9 -19 5 -23 -4 -4 -10 -1 -12 6 -7 19 -51 14 -63 -7 -7 -15 -6
-23 5 -35 19 -18 19 -26 2 -26 -8 0 -19 11 -25 24 -22 49 54 102 88 61z m-428
-6 c198 -41 376 -219 417 -417 20 -98 5 -282 -26 -313 -6 -6 -48 80 -109 218
l-99 227 -5 -47 -5 -47 -29 52 -29 52 -20 -53 c-19 -49 -22 -52 -34 -35 -8 11
-16 29 -20 42 -7 30 -15 28 -40 -16 -22 -39 -24 -37 -38 23 -7 28 -11 22 -61
-84 -30 -63 -54 -115 -54 -117 0 -2 12 1 26 6 14 6 49 9 77 9 29 -1 40 -4 25
-6 -26 -4 -27 -6 -30 -81 -2 -43 1 -83 7 -91 6 -10 6 -13 0 -9 -6 4 -10 -6
-10 -22 0 -16 3 -26 7 -22 18 19 61 119 66 154 9 71 27 25 26 -70 0 -101 -21
-156 -84 -221 l-38 -39 14 -63 c21 -100 20 -109 -18 -109 l-33 0 3 77 c2 43 8
83 13 90 7 7 0 18 -21 33 -16 12 -28 26 -24 31 3 5 -20 -7 -52 -27 -87 -56
-154 -83 -211 -85 -46 -2 -56 1 -90 32 -21 19 -78 64 -127 99 -49 36 -107 79
-130 95 -52 39 -69 87 -63 175 5 77 31 134 82 178 l36 32 150 0 c117 0 154 -3
165 -14 10 -11 14 -41 14 -110 l0 -96 -105 0 c-93 0 -105 -2 -115 -19 -20 -38
-11 -75 31 -126 65 -79 90 -127 83 -162 -7 -37 10 -73 35 -73 16 0 18 10 20
82 1 45 4 85 7 90 3 4 1 8 -5 8 -5 0 -14 -7 -19 -16 -7 -13 -15 -5 -40 39 -17
31 -45 72 -63 91 l-31 36 111 0 111 0 0 164 c0 99 -4 167 -10 171 -5 3 -10 1
-10 -4 0 -7 -56 -11 -165 -11 l-165 0 -49 -47 c-68 -67 -94 -140 -89 -250 2
-55 0 -79 -7 -72 -5 6 -10 49 -9 97 2 171 76 282 189 282 l53 0 50 69 c133
182 346 265 564 220z m-662 -28 c0 -5 -9 -11 -21 -14 -16 -4 -20 -12 -17 -34
2 -23 8 -29 34 -31 22 -2 33 2 38 13 10 27 -4 38 -25 19 -23 -21 -25 -7 -2 18
21 23 30 23 43 -3 16 -29 -11 -69 -47 -69 -57 0 -84 64 -41 94 25 18 38 20 38
7z m105 -11 c3 -5 2 -10 -4 -10 -5 0 -13 5 -16 10 -3 6 -2 10 4 10 5 0 13 -4
16 -10z m1055 -31 c10 -17 6 -25 -26 -55 -39 -35 -49 -40 -58 -25 -3 4 6 13
21 20 20 9 23 15 15 23 -20 20 -13 32 6 15 19 -18 32 -14 32 10 0 22 -43 15
-72 -12 -23 -21 -28 -22 -38 -10 -10 12 -10 15 1 15 8 0 25 9 39 20 33 25 66
25 80 -1z m-1202 -83 c48 -24 40 -39 -18 -34 -28 1 -50 2 -50 1 0 -1 15 -10
33 -19 17 -9 33 -18 35 -19 2 -2 -3 -14 -10 -27 -7 -12 -13 -24 -14 -25 0 -2
-23 6 -51 17 -28 10 -54 16 -57 12 -4 -3 -4 1 0 11 8 21 3 21 58 -3 29 -12 48
-15 52 -9 7 13 8 12 -44 38 -51 26 -47 41 11 41 l42 1 -31 17 c-17 9 -29 23
-27 30 4 11 8 10 22 -1 9 -8 31 -22 49 -31z m1272 -35 c0 -5 -7 -12 -16 -15
-26 -10 -10 -31 22 -28 22 2 26 1 14 -7 -8 -6 -28 -11 -45 -10 -16 0 -39 -1
-49 -3 -10 -2 -21 3 -23 10 -3 7 -1 12 4 11 24 -4 43 3 43 16 0 7 8 19 18 24
21 13 32 14 32 2z m-1664 -166 c11 -11 14 -34 12 -90 l-3 -75 -67 41 c-38 23
-68 49 -69 58 0 9 -2 31 -5 49 l-4 32 61 0 c40 0 65 -5 75 -15z m188 -1 c8
-21 8 -274 0 -274 -4 0 -38 19 -75 42 l-69 43 0 102 0 103 69 0 c54 0 70 -4
75 -16z m1532 -29 c4 -14 3 -29 0 -33 -4 -3 -9 4 -13 16 -8 30 -19 28 -32 -8
-13 -40 -45 -40 -59 -1 -6 16 -8 32 -5 35 9 8 23 7 22 -1 -3 -21 2 -43 10 -43
5 0 14 14 20 30 13 39 48 41 57 5z m14 -72 c0 -13 -9 -19 -33 -20 -17 -1 -42
-5 -54 -8 -16 -4 -23 -1 -23 10 0 11 11 15 38 15 20 0 44 5 52 10 20 13 20 13
20 -7z m-1789 -55 l69 -43 0 -202 c0 -129 -4 -203 -10 -203 -5 0 -10 -4 -10
-10 0 -5 11 -10 25 -10 l25 0 0 200 c0 110 2 200 5 200 3 0 37 -20 76 -45 l70
-46 -3 -154 -3 -155 97 0 c86 0 101 3 119 21 29 29 20 69 -31 133 -21 28 -37
52 -35 54 5 6 255 -181 284 -212 18 -19 22 -32 18 -55 -11 -53 -36 -101 -56
-109 -30 -11 -283 5 -373 23 -141 29 -328 105 -341 138 -8 21 -9 517 -1 517 4
0 38 -19 75 -42z m1709 -13 c0 -29 16 -33 25 -6 7 25 34 35 51 20 16 -13 19
-64 4 -54 -5 3 -10 15 -10 26 0 27 -18 24 -32 -6 -17 -38 -52 -30 -56 13 -2
18 1 32 7 32 6 0 11 -11 11 -25z m82 -115 c-4 -40 -22 -57 -22 -21 0 14 -10
21 -35 25 -20 4 -40 4 -45 1 -6 -3 -10 3 -10 14 0 18 3 19 26 11 45 -18 74
-13 74 13 0 14 3 18 8 10 4 -7 6 -30 4 -53z m-40 -57 c21 -19 24 -63 4 -63 -9
0 -12 8 -9 24 3 13 0 27 -6 30 -6 4 -11 0 -11 -8 0 -8 -5 -18 -12 -22 -8 -5
-9 0 -6 14 4 15 2 22 -9 22 -8 0 -17 -9 -20 -20 -6 -21 -23 -28 -23 -8 0 19
32 48 53 48 11 0 29 -7 39 -17z m-12 -125 c0 -7 -15 -8 -42 -4 l-43 7 29 -30
c16 -17 27 -34 23 -37 -7 -7 -107 17 -107 26 0 17 15 18 42 4 41 -21 46 -11 9
16 -44 31 -40 44 12 36 l42 -6 -25 19 c-13 11 -28 17 -32 15 -9 -6 -11 10 -2
19 9 8 94 -51 94 -65z m-237 1 c-10 -17 -40 -54 -66 -82 l-48 -52 50 63 c28
34 55 71 61 82 6 11 13 20 16 20 3 0 -3 -14 -13 -31z m-1063 -59 c21 -51 10
-60 -75 -60 -43 0 -75 4 -75 10 0 6 30 10 70 10 64 0 70 2 70 21 0 11 -5 30
-11 41 -6 11 -7 18 -1 14 5 -3 15 -19 22 -36z m1185 -32 c19 -17 35 -37 35
-43 0 -21 -28 -38 -52 -31 -32 9 -71 43 -63 56 4 6 13 2 24 -12 l18 -22 12 22
c9 17 8 23 -9 35 -11 7 -17 17 -13 20 10 10 11 10 48 -25z m-85 -56 c0 -4 -9
-13 -21 -20 -27 -17 -16 -27 26 -24 42 4 52 -11 29 -46 -11 -16 -19 -22 -22
-14 -2 7 2 19 8 27 11 13 6 15 -28 15 -46 0 -58 17 -36 49 15 20 44 29 44 13z
m-770 -12 c12 -7 12 -12 3 -21 -9 -9 -16 -9 -28 1 -29 24 -9 42 25 20z m105
-78 c-5 -6 -74 18 -80 27 -2 5 15 1 40 -8 24 -8 42 -17 40 -19z m-894 3 c107
-62 307 -108 516 -120 68 -4 120 -11 117 -16 -8 -13 -661 -12 -669 1 -4 6 -11
8 -16 4 -6 -3 -9 26 -8 75 1 45 5 81 9 81 4 0 28 -11 51 -25z m691 -215 c-4
-45 -2 -50 17 -50 19 0 21 6 21 50 0 37 4 50 14 50 11 0 14 -9 10 -37 -10 -77
-13 -83 -38 -83 -32 0 -43 17 -47 73 -3 37 -1 47 11 47 12 0 14 -11 12 -50z
m129 8 l20 -43 -3 43 c-3 36 -1 42 15 42 13 0 17 -5 13 -16 -3 -9 -6 -36 -6
-60 0 -55 -23 -60 -40 -9 -16 49 -26 51 -22 4 3 -28 0 -39 -9 -39 -11 0 -13
14 -11 60 2 33 8 60 13 60 6 0 19 -19 30 -42z m133 20 c20 -28 22 -98 2 -98
-9 0 -12 8 -8 25 4 22 1 25 -23 25 -24 0 -27 -3 -23 -25 4 -17 1 -25 -8 -25
-20 0 -18 70 2 98 8 12 21 22 29 22 8 0 21 -10 29 -22z m92 -36 l7 -35 16 43
c9 24 20 43 26 42 5 -1 14 -26 20 -57 10 -50 10 -55 -6 -55 -12 0 -16 6 -12
19 3 11 1 27 -5 37 -8 14 -11 10 -16 -20 -9 -45 -25 -43 -41 4 l-12 35 -7 -28
c-3 -15 -4 -32 -1 -37 4 -6 -3 -10 -14 -10 -18 0 -19 3 -11 26 6 14 10 38 10
53 0 57 35 44 46 -17z m164 43 c7 -8 10 -21 7 -28 -3 -8 -1 -20 3 -27 15 -25
-8 -50 -45 -50 -35 0 -35 0 -35 44 0 63 39 98 70 61z m98 3 c17 -21 23 -108 8
-108 -9 0 -12 9 -8 25 4 22 1 25 -23 25 -24 0 -27 -3 -23 -25 4 -18 1 -25 -11
-25 -13 0 -16 8 -13 43 6 62 44 97 70 65z"/>
<path d="M1490 2044 c0 -9 7 -14 17 -12 25 5 28 28 4 28 -12 0 -21 -6 -21 -16z"/>
<path d="M1351 2032 c-14 -27 8 -55 40 -50 19 2 24 9 24 33 0 25 -4 31 -27 33
-18 2 -30 -3 -37 -16z"/>
<path d="M1770 1991 c0 -10 36 -21 44 -14 3 3 3 10 0 14 -7 12 -44 12 -44 0z"/>
<path d="M1293 1175 c-8 -22 6 -33 17 -15 13 20 12 30 0 30 -6 0 -13 -7 -17
-15z"/>
<path d="M1417 1149 c-15 -9 -16 -13 -6 -25 7 -8 8 -14 3 -13 -5 1 -22 -3 -38
-10 -19 -8 -26 -16 -22 -27 3 -8 2 -13 -3 -10 -5 3 -11 -3 -14 -14 -3 -11 -3
-20 0 -20 24 0 122 94 123 118 0 15 -18 15 -43 1z"/>
<path d="M2072 910 c-7 -12 -8 -21 -2 -25 13 -8 30 3 30 20 0 23 -15 25 -28 5z"/>
<path d="M1346 605 c-8 -23 -9 -23 19 -17 14 2 24 10 22 16 -6 18 -34 18 -41
1z"/>
<path d="M1607 614 c-15 -15 -6 -32 13 -27 12 3 19 10 17 16 -4 14 -21 19 -30
11z"/>
<path d="M1600 550 c0 -22 1 -23 24 -14 23 9 20 34 -4 34 -13 0 -20 -7 -20
-20z"/>
<path d="M1707 614 c-16 -17 -6 -31 18 -26 14 2 24 10 22 16 -4 13 -30 20 -40
10z"/>
<path d="M2093 573 c9 -2 23 -2 30 0 6 3 -1 5 -18 5 -16 0 -22 -2 -12 -5z"/>
<path d="M2045 550 c-10 -11 -16 -22 -14 -24 2 -2 12 7 22 20 22 29 17 32 -8
4z"/>
<path d="M2022 490 c0 -14 2 -19 5 -12 2 6 2 18 0 25 -3 6 -5 1 -5 -13z"/>
<path d="M1910 425 c-13 -14 -22 -26 -19 -28 2 -1 16 10 31 25 15 15 23 28 19
28 -4 0 -18 -11 -31 -25z"/>
<path d="M1930 244 c0 -32 87 -126 133 -143 87 -33 219 2 265 69 43 63 40 65
-136 68 -86 2 -181 5 -209 7 -29 3 -53 2 -53 -1z"/>
</g>
</svg>
